<svg width="120" height="120" viewBox="0 0 120 120" fill="none" xmlns="http://www.w3.org/2000/svg">
<circle cx="60" cy="60" r="60" fill="url(#paint0_linear_17_3)"/>
<g filter="url(#filter0_d_17_3)">
<path d="M29.376 99.352C30.336 96.152 31.424 92.664 32.64 88.888C33.856 85.048 35.264 80.568 36.864 75.448C38.464 70.264 40.32 64.12 42.432 57.016C44.544 49.912 46.976 41.528 49.728 31.864C49.792 31.672 49.92 31.192 50.112 30.424C50.304 29.656 50.4 28.888 50.4 28.12C50.4 27.608 50.304 27.256 50.112 27.064C49.984 26.872 49.664 26.776 49.152 26.776C47.808 26.776 46.496 27.32 45.216 28.408C44 29.496 42.88 30.872 41.856 32.536C40.896 34.136 40.128 35.832 39.552 37.624C39.04 39.352 38.784 40.92 38.784 42.328C38.784 43.864 39.104 45.368 39.744 46.84C36.928 46.84 34.944 46.264 33.792 45.112C32.64 43.896 32.064 42.392 32.064 40.6C32.064 38.424 32.736 36.248 34.08 34.072C35.424 31.832 37.12 29.816 39.168 28.024C41.28 26.168 43.456 24.696 45.696 23.608C48 22.456 50.08 21.88 51.936 21.88C54.176 21.88 56 22.712 57.408 24.376C58.88 25.976 60.064 28.184 60.96 31C61.92 33.816 62.72 37.016 63.36 40.6C64 44.184 64.608 47.96 65.184 51.928C65.952 57.048 66.56 61.144 67.008 64.216C67.456 67.224 67.808 69.624 68.064 71.416C68.384 73.208 68.64 74.712 68.832 75.928C69.088 77.144 69.344 78.52 69.6 80.056C70.368 76.984 71.136 73.752 71.904 70.36C72.736 66.904 73.568 63.416 74.4 59.896C75.232 56.376 76.032 52.952 76.8 49.624C77.632 46.232 78.464 43.064 79.296 40.12C80.128 37.176 80.928 34.584 81.696 32.344C82.528 30.04 83.328 28.216 84.096 26.872C84.672 25.848 85.568 24.76 86.784 23.608C88.064 22.392 89.76 21.784 91.872 21.784C90.784 24.664 89.536 28.248 88.128 32.536C86.784 36.76 85.408 41.368 84 46.36C82.592 51.288 81.216 56.344 79.872 61.528C78.592 66.648 77.44 71.64 76.416 76.504C75.392 81.304 74.56 85.688 73.92 89.656C73.344 93.624 73.056 96.856 73.056 99.352C70.688 99.352 68.736 98.776 67.2 97.624C65.728 96.536 64.608 94.36 63.84 91.096C63.584 90.008 63.2 88.184 62.688 85.624C62.176 83.064 61.6 80.056 60.96 76.6C60.32 73.08 59.648 69.4 58.944 65.56C58.24 61.72 57.568 57.976 56.928 54.328C56.288 50.616 55.712 47.32 55.2 44.44C54.688 41.496 54.272 39.256 53.952 37.72C51.072 48.216 48.608 57.112 46.56 64.408C44.512 71.64 42.72 77.56 41.184 82.168C39.648 86.712 38.272 90.232 37.056 92.728C35.84 95.224 34.624 96.952 33.408 97.912C32.192 98.872 30.848 99.352 29.376 99.352Z" fill="white"/>
</g>
<defs>
<filter id="filter0_d_17_3" x="25.376" y="21.784" width="70.496" height="85.568" filterUnits="userSpaceOnUse" color-interpolation-filters="sRGB">
<feFlood flood-opacity="0" result="BackgroundImageFix"/>
<feColorMatrix in="SourceAlpha" type="matrix" values="0 0 0 0 0 0 0 0 0 0 0 0 0 0 0 0 0 0 127 0" result="hardAlpha"/>
<feOffset dy="4"/>
<feGaussianBlur stdDeviation="2"/>
<feComposite in2="hardAlpha" operator="out"/>
<feColorMatrix type="matrix" values="0 0 0 0 0 0 0 0 0 0 0 0 0 0 0 0 0 0 0.25 0"/>
<feBlend mode="normal" in2="BackgroundImageFix" result="effect1_dropShadow_17_3"/>
<feBlend mode="normal" in="SourceGraphic" in2="effect1_dropShadow_17_3" result="shape"/>
</filter>
<linearGradient id="paint0_linear_17_3" x1="60" y1="0" x2="60" y2="120" gradientUnits="userSpaceOnUse">
<stop stop-color="#021B79"/>
<stop offset="1" stop-color="#0575E6"/>
</linearGradient>
</defs>
</svg>
