<svg width="458" height="113" viewBox="0 0 458 113" fill="none" xmlns="http://www.w3.org/2000/svg">
<path d="M55.4844 71.6406L52.1094 66.0625V31.375H55.4844V71.6406ZM62.2344 82.7031L58.8594 77.0312V31.375H62.2344V82.7031ZM68.9844 93.9062L65.6094 88.1875V31.375H68.9844V93.9062ZM20.6094 68.7344L23.9844 74.3125V109H20.6094V68.7344ZM13.8594 57.6719L17.2344 63.3438V109H13.8594V57.6719ZM7.10938 46.4688L10.4844 52.1875V109H7.10938V46.4688ZM8.28125 31.375H12.2188L59.9375 109H56L8.28125 31.375ZM16.25 31.375H20.2344L67.9062 109H63.875L16.25 31.375ZM24.1719 31.375H28.1094L72.3594 103.516V31.375H75.7344V109C75.7344 109 74.4062 109 71.75 109L24.1719 31.375ZM3.73438 36.8594V109H0.359375V31.375C0.359375 31.375 1.70312 31.375 4.39062 31.375L51.9688 109H48.0781L3.73438 36.8594ZM111.969 57.0625C108.344 60.6875 106.531 65.0625 106.531 70.1875C106.531 75.3125 108.344 79.6875 111.969 83.3125C115.594 86.9375 119.969 88.75 125.094 88.75C130.219 88.75 134.594 86.9375 138.219 83.3125C141.844 79.6875 143.656 75.3125 143.656 70.1875C143.656 65.0625 141.844 60.6875 138.219 57.0625C134.594 53.4375 130.219 51.625 125.094 51.625C119.969 51.625 115.594 53.4375 111.969 57.0625ZM104.891 78.7188C103.734 76 103.156 73.1562 103.156 70.1875C103.156 67.2188 103.734 64.3906 104.891 61.7031C106.047 58.9844 107.609 56.6406 109.578 54.6719C111.547 52.7031 113.875 51.1406 116.562 49.9844C119.281 48.8281 122.125 48.25 125.094 48.25C128.062 48.25 130.891 48.8281 133.578 49.9844C136.297 51.1406 138.641 52.7031 140.609 54.6719C142.578 56.6406 144.141 58.9844 145.297 61.7031C146.453 64.3906 147.031 67.2188 147.031 70.1875C147.031 73.1562 146.453 76 145.297 78.7188C144.141 81.4062 142.578 83.7344 140.609 85.7031C138.641 87.6719 136.297 89.2344 133.578 90.3906C130.891 91.5469 128.062 92.125 125.094 92.125C122.125 92.125 119.281 91.5469 116.562 90.3906C113.875 89.2344 111.547 87.6719 109.578 85.7031C107.609 83.7344 106.047 81.4062 104.891 78.7188ZM103.156 57.4844C100.906 61.3594 99.7812 65.5938 99.7812 70.1875C99.7812 74.7812 100.906 79.0156 103.156 82.8906C105.438 86.7656 108.516 89.8438 112.391 92.125C116.266 94.375 120.5 95.5 125.094 95.5C129.688 95.5 133.922 94.375 137.797 92.125C141.672 89.8438 144.734 86.7656 146.984 82.8906C149.266 79.0156 150.406 74.7812 150.406 70.1875C150.406 65.5938 149.266 61.3594 146.984 57.4844C144.734 53.6094 141.672 50.5469 137.797 48.2969C133.922 46.0156 129.688 44.875 125.094 44.875C120.5 44.875 116.266 46.0156 112.391 48.2969C108.516 50.5469 105.438 53.6094 103.156 57.4844ZM100.25 84.5781C97.6875 80.1719 96.4062 75.375 96.4062 70.1875C96.4062 65 97.6875 60.2031 100.25 55.7969C102.812 51.3906 106.297 47.9062 110.703 45.3438C115.109 42.7812 119.906 41.5 125.094 41.5C130.281 41.5 135.078 42.7812 139.484 45.3438C143.891 47.9062 147.375 51.3906 149.938 55.7969C152.5 60.2031 153.781 65 153.781 70.1875C153.781 75.375 152.5 80.1719 149.938 84.5781C147.375 88.9844 143.891 92.4688 139.484 95.0312C135.078 97.5938 130.281 98.875 125.094 98.875C119.906 98.875 115.109 97.5938 110.703 95.0312C106.297 92.4688 102.812 88.9844 100.25 84.5781ZM95.5625 57.7188C93.875 61.6875 93.0312 65.8438 93.0312 70.1875C93.0312 74.5312 93.875 78.6875 95.5625 82.6562C97.25 86.625 99.5156 90.0469 102.359 92.9219C105.234 95.7656 108.656 98.0312 112.625 99.7188C116.594 101.406 120.75 102.25 125.094 102.25C129.438 102.25 133.594 101.406 137.562 99.7188C141.531 98.0312 144.938 95.7656 147.781 92.9219C150.656 90.0469 152.938 86.625 154.625 82.6562C156.312 78.6875 157.156 74.5312 157.156 70.1875C157.156 65.8438 156.312 61.6875 154.625 57.7188C152.938 53.75 150.656 50.3438 147.781 47.5C144.938 44.625 141.531 42.3438 137.562 40.6562C133.594 38.9688 129.438 38.125 125.094 38.125C120.75 38.125 116.594 38.9688 112.625 40.6562C108.656 42.3438 105.234 44.625 102.359 47.5C99.5156 50.3438 97.25 53.75 95.5625 57.7188ZM94.3906 87.9531C91.2344 82.5156 89.6562 76.5938 89.6562 70.1875C89.6562 63.7812 91.2344 57.8594 94.3906 52.4219C97.5781 46.9844 101.891 42.6875 107.328 39.5312C112.766 36.3438 118.688 34.75 125.094 34.75C131.5 34.75 137.422 36.3438 142.859 39.5312C148.297 42.6875 152.594 46.9844 155.75 52.4219C158.938 57.8594 160.531 63.7812 160.531 70.1875C160.531 76.5938 158.938 82.5156 155.75 87.9531C152.594 93.3906 148.297 97.7031 142.859 100.891C137.422 104.047 131.5 105.625 125.094 105.625C118.688 105.625 112.766 104.047 107.328 100.891C101.891 97.7031 97.5781 93.3906 94.3906 87.9531ZM89.3281 55.1406C87.2969 59.9219 86.2812 64.9375 86.2812 70.1875C86.2812 75.4375 87.2969 80.4688 89.3281 85.2812C91.3906 90.0625 94.1562 94.1875 97.625 97.6562C101.094 101.125 105.219 103.891 110 105.953C114.812 107.984 119.844 109 125.094 109C130.344 109 135.359 107.984 140.141 105.953C144.953 103.891 149.094 101.125 152.562 97.6562C156.031 94.1875 158.781 90.0625 160.812 85.2812C162.875 80.4688 163.906 75.4375 163.906 70.1875C163.906 64.9375 162.875 59.9219 160.812 55.1406C158.781 50.3281 156.031 46.1875 152.562 42.7188C149.094 39.25 144.953 36.5 140.141 34.4688C135.359 32.4062 130.344 31.375 125.094 31.375C119.844 31.375 114.812 32.4062 110 34.4688C105.219 36.5 101.094 39.25 97.625 42.7188C94.1562 46.1875 91.3906 50.3281 89.3281 55.1406ZM86.2344 86.5938C84.0156 81.375 82.9062 75.9062 82.9062 70.1875C82.9062 64.4688 84.0156 59.0156 86.2344 53.8281C88.4844 48.6094 91.4844 44.125 95.2344 40.375C99.0156 36.5938 103.5 33.5938 108.688 31.375C113.906 29.125 119.375 28 125.094 28C130.812 28 136.266 29.125 141.453 31.375C146.672 33.5938 151.156 36.5938 154.906 40.375C158.688 44.125 161.688 48.6094 163.906 53.8281C166.156 59.0156 167.281 64.4688 167.281 70.1875C167.281 75.9062 166.156 81.375 163.906 86.5938C161.688 91.7812 158.688 96.2656 154.906 100.047C151.156 103.797 146.672 106.781 141.453 109C136.266 111.25 130.812 112.375 125.094 112.375C119.375 112.375 113.906 111.25 108.688 109C103.5 106.781 99.0156 103.797 95.2344 100.047C91.4844 96.2656 88.4844 91.7812 86.2344 86.5938ZM198.688 18.3438L196.016 15.9062L227.281 0.625L229.953 3.0625L198.688 18.3438ZM204.031 23.2188L201.359 20.7812L232.578 5.5L235.297 7.98438L204.031 23.2188ZM191.141 109H187.766V31.375H191.141V109ZM184.391 109H181.016V31.375H184.391V109ZM177.641 109H174.266V31.375H177.641V109ZM197.891 92.125H233.797V95.5H197.891V98.875H233.797V102.25H197.891V105.625H233.797V109H194.516V31.375H233.797V34.75H197.891V38.125H233.797V41.5H197.891V44.875H233.797V48.25H197.891V61.75H216.312V65.125H197.891V68.5H216.312V71.875H197.891V75.25H216.312V78.625H197.891V92.125Z" fill="black"/>
<path d="M318.828 80.6875L322.203 74.3125V109H318.828V80.6875ZM325.578 67.75L328.953 61.375V109H325.578V67.75ZM332.328 55L335.703 48.5781V109H332.328V55ZM309.688 79.0938L307.766 75.5781L331.016 31.375H334.812L309.688 79.0938ZM305.797 71.7344L303.828 68.1719L323.328 31.375H327.172L305.797 71.7344ZM283.203 74.6875L286.578 81.0625V109H283.203V74.6875ZM276.453 61.8438L279.828 68.2188V109H276.453V61.8438ZM269.703 49L273.078 55.4219V109H269.703V49ZM296.984 88.75H293.188L266.328 37.7969V109H262.953V31.375H266.75L296.984 88.75ZM304.625 88.75H300.781L270.594 31.375H274.438L304.625 88.75ZM339.078 37.7969L312.219 88.75H308.375L278.234 31.375H282.031L310.344 85.1875L338.609 31.375H342.453V109H339.078V37.7969ZM350.797 95.5V92.125H367.672V95.5H350.797ZM350.797 102.25V98.875H367.672V102.25H350.797ZM350.797 109V105.625H367.672V109H350.797ZM407.281 61.75H401.609C399.203 61.75 397.469 61.1406 396.406 59.9219C395.344 58.6719 394.812 57.0312 394.812 55C394.812 50.5 398.172 48.25 404.891 48.25C411.203 48.25 415.953 49.1875 419.141 51.0625L416.422 53.125C414.234 52.125 410.391 51.625 404.891 51.625C402.203 51.625 400.391 51.9219 399.453 52.5156C398.547 53.1094 398.094 53.9375 398.094 55C398.094 56.0625 398.344 56.8906 398.844 57.4844C399.344 58.0781 400.266 58.375 401.609 58.375H407.422C411.641 58.375 415.438 59.0938 418.812 60.5312C422.219 61.9688 425.016 63.9375 427.203 66.4375C429.391 68.9062 431.062 71.7656 432.219 75.0156C433.375 78.2344 433.953 81.6875 433.953 85.375C433.953 88.375 433.531 91.2188 432.688 93.9062C431.844 96.5938 430.562 99.0625 428.844 101.312C427.156 103.562 425.109 105.516 422.703 107.172C420.328 108.797 417.484 110.062 414.172 110.969C410.891 111.906 407.328 112.375 403.484 112.375C397.453 112.375 391.797 111.453 386.516 109.609C381.266 107.797 376.891 105.25 373.391 101.969L376.109 99.9531C379.297 102.828 383.281 105.062 388.062 106.656C392.875 108.219 398.016 109 403.484 109C407.766 109 411.625 108.391 415.062 107.172C418.531 105.922 421.375 104.219 423.594 102.062C425.844 99.9062 427.562 97.4062 428.75 94.5625C429.969 91.7188 430.578 88.6562 430.578 85.375C430.578 81.0312 429.703 77.1094 427.953 73.6094C426.203 70.0781 423.531 67.2188 419.938 65.0312C416.375 62.8438 412.156 61.75 407.281 61.75ZM401.609 65.125H406.953C413.297 65.125 418.25 67.0625 421.812 70.9375C425.406 74.8125 427.203 79.625 427.203 85.375C427.203 91.2188 425.125 96.0625 420.969 99.9062C416.812 103.719 410.984 105.625 403.484 105.625C398.484 105.625 393.812 104.938 389.469 103.562C385.125 102.188 381.516 100.25 378.641 97.75L381.266 95.6406C383.828 97.7344 387.047 99.3594 390.922 100.516C394.828 101.672 399.016 102.25 403.484 102.25C410.078 102.25 415.109 100.672 418.578 97.5156C422.078 94.3594 423.828 90.3125 423.828 85.375C423.828 80.5 422.359 76.4688 419.422 73.2812C416.516 70.0938 412.344 68.5 406.906 68.5H401.609C397.047 68.5 393.625 67.25 391.344 64.75C389.062 62.25 387.922 59 387.922 55C387.922 51 389.328 47.75 392.141 45.25C394.984 42.75 399.234 41.5 404.891 41.5C408.859 41.5 412.547 41.9688 415.953 42.9062C419.359 43.8125 422.172 45.125 424.391 46.8438L421.719 48.9062C417.812 46.2188 412.203 44.875 404.891 44.875C400.172 44.875 396.719 45.8125 394.531 47.6875C392.375 49.5312 391.297 51.9688 391.297 55C391.297 58.0625 392.094 60.5156 393.688 62.3594C395.312 64.2031 397.953 65.125 401.609 65.125ZM401.609 71.875H406.766C411.328 71.875 414.75 73.1406 417.031 75.6719C419.312 78.2031 420.453 81.4375 420.453 85.375C420.453 89.375 419.031 92.625 416.188 95.125C413.375 97.625 409.141 98.875 403.484 98.875C399.516 98.875 395.812 98.4219 392.375 97.5156C388.969 96.5781 386.156 95.25 383.938 93.5312L386.609 91.4688C390.516 94.1562 396.141 95.5 403.484 95.5C408.203 95.5 411.641 94.5781 413.797 92.7344C415.984 90.8594 417.078 88.4062 417.078 85.375C417.078 82.3438 416.266 79.9062 414.641 78.0625C413.016 76.1875 410.375 75.25 406.719 75.25H401.609C395.203 75.25 390.188 73.3438 386.562 69.5312C382.969 65.6875 381.172 60.8438 381.172 55C381.172 49.1562 383.25 44.3281 387.406 40.5156C391.562 36.6719 397.391 34.75 404.891 34.75C409.891 34.75 414.547 35.4375 418.859 36.8125C423.203 38.1875 426.812 40.125 429.688 42.625L427.062 44.7344C424.5 42.6406 421.281 41.0156 417.406 39.8594C413.531 38.7031 409.359 38.125 404.891 38.125C398.297 38.125 393.25 39.7031 389.75 42.8594C386.281 46.0156 384.547 50.0625 384.547 55C384.547 59.9062 386.016 63.9531 388.953 67.1406C391.891 70.2969 396.109 71.875 401.609 71.875ZM401.609 78.625H406.766C409.172 78.625 410.906 79.25 411.969 80.5C413.031 81.75 413.562 83.375 413.562 85.375C413.562 89.875 410.203 92.125 403.484 92.125C397.141 92.125 392.375 91.1875 389.188 89.3125L391.906 87.25C394.094 88.25 397.953 88.75 403.484 88.75C406.172 88.75 407.969 88.4531 408.875 87.8594C409.812 87.2656 410.281 86.4375 410.281 85.375C410.281 84.3438 410.016 83.5312 409.484 82.9375C408.984 82.3125 408.047 82 406.672 82H401.609C397.297 82 393.391 81.2969 389.891 79.8906C386.422 78.4844 383.562 76.5469 381.312 74.0781C379.094 71.6094 377.391 68.75 376.203 65.5C375.016 62.25 374.422 58.75 374.422 55C374.422 52 374.844 49.1562 375.688 46.4688C376.531 43.7812 377.797 41.3125 379.484 39.0625C381.203 36.8125 383.25 34.875 385.625 33.25C388.031 31.5938 390.875 30.3125 394.156 29.4062C397.469 28.4688 401.047 28 404.891 28C410.922 28 416.562 28.9219 421.812 30.7656C427.062 32.5781 431.438 35.125 434.938 38.4062L432.219 40.4219C429.031 37.5469 425.047 35.3281 420.266 33.7656C415.484 32.1719 410.359 31.375 404.891 31.375C400.609 31.375 396.734 32 393.266 33.25C389.828 34.4688 386.984 36.1562 384.734 38.3125C382.516 40.4688 380.797 42.9688 379.578 45.8125C378.391 48.6562 377.797 51.7188 377.797 55C377.797 59.4062 378.688 63.375 380.469 66.9062C382.25 70.4375 384.969 73.2812 388.625 75.4375C392.281 77.5625 396.609 78.625 401.609 78.625ZM440.891 95.5V92.125H457.766V95.5H440.891ZM440.891 102.25V98.875H457.766V102.25H440.891ZM440.891 109V105.625H457.766V109H440.891Z" fill="#313BAC"/>
</svg>
